<?xml version="1.0" encoding="UTF-8" standalone="no"?>
<svg width="92px" height="16px" viewBox="0 0 92 16" version="1.1" xmlns="http://www.w3.org/2000/svg" xmlns:xlink="http://www.w3.org/1999/xlink" xmlns:sketch="http://www.bohemiancoding.com/sketch/ns">
    <!-- Generator: Sketch 3.4 (15575) - http://www.bohemiancoding.com/sketch -->
    <title>CareVille</title>
    <desc>Created with Sketch.</desc>
    <defs>
        <path id="path-1" d="M0,0.367219512 L91.8167797,0.367219512 L91.8167797,16 L0,16"></path>
        <path id="path-3" d="M0,0.367219512 L91.8167797,0.367219512 L91.8167797,16 L0,16 L0,0.367219512 Z"></path>
        <path id="path-5" d="M0,0.367219512 L91.8167797,0.367219512 L91.8167797,16 L0,16 L0,0.367219512 Z"></path>
    </defs>
    <g id="Opportunities-Card---Social-Enterprise---Filter" stroke="none" stroke-width="1" fill="none" fill-rule="evenodd" sketch:type="MSPage">
        <g id="Opportunity-Card-More-Info---Social-Ent" sketch:type="MSArtboardGroup" transform="translate(-35.000000, -16.000000)">
            <g id="CareVille" sketch:type="MSLayerGroup" transform="translate(35.000000, 16.000000)">
                <g id="Group-3">
                    <mask id="mask-2" sketch:name="Clip 2" fill="white">
                        <use xlink:href="#path-1"></use>
                    </mask>
                    <g id="Clip-2"></g>
                    <path d="M4.24178475,8.22540488 C4.07415763,8.8540878 3.99385254,9.4656 4.00086949,10.059161 C4.00788644,10.6531122 4.11937797,11.1803317 4.33612373,11.6412098 C4.55208983,12.1020878 4.88032712,12.4693073 5.32005593,12.7413073 C5.75939492,13.0136976 6.32815763,13.1502829 7.02595424,13.1502829 C7.47231017,13.1502829 7.93971695,13.1015024 8.42856441,13.0035512 C8.9166322,12.9059902 9.40197119,12.7799415 9.88341186,12.6261854 C10.3648525,12.4724293 10.8388864,12.3050146 11.3066831,12.123161 C11.7740898,11.9416976 12.2099203,11.7668683 12.6149542,11.5994537 L11.7148356,14.9309659 C11.3936153,15.0148683 11.0556322,15.1198439 10.6997169,15.2455024 C10.3438017,15.371161 9.93564915,15.4866732 9.47525932,15.5912585 C9.01447966,15.6958439 8.49444576,15.7863805 7.91554746,15.8636488 C7.33625932,15.9401366 6.6626322,15.979161 5.89544576,15.979161 C4.72322542,15.979161 3.7147339,15.7973073 2.87075085,15.4339902 C2.02598814,15.0710634 1.36678475,14.5473561 0.892361017,13.862478 C0.417937288,13.1779902 0.131801695,12.3502829 0.0343440678,11.3793561 C-0.0635033898,10.4084293 0.0479881356,9.31496585 0.369208475,8.09974634 C0.676005085,6.94033171 1.13639492,5.88550244 1.7507678,4.93525854 C2.36475085,3.98579512 3.09061525,3.17174634 3.92797119,2.49428293 C4.76493729,1.81681951 5.70364915,1.29272195 6.74332712,0.922770732 C7.78261525,0.552429268 8.88895424,0.367063415 10.0611746,0.367063415 C10.828361,0.367063415 11.4848356,0.405697561 12.029039,0.48257561 C12.5732424,0.559453659 13.0441576,0.649990244 13.4421746,0.754965854 C13.8398017,0.85955122 14.1883102,0.97155122 14.4884797,1.09018537 C14.7886492,1.20920976 15.0712763,1.31730732 15.336361,1.41486829 L14.4572932,4.7260878 C14.1360729,4.57233171 13.7906831,4.40452683 13.4211237,4.22306341 C13.0511746,4.0416 12.6636831,3.87730732 12.259039,3.73057561 C11.8543949,3.5838439 11.4357169,3.46169756 11.0033949,3.36374634 C10.5702932,3.26618537 10.1309542,3.21740488 9.68420847,3.21740488 C8.98641186,3.21740488 8.34475085,3.36062439 7.75844576,3.64667317 C7.17253051,3.9331122 6.64547966,4.31399024 6.17807288,4.78891707 C5.71027627,5.2638439 5.31264915,5.7980878 4.98480169,6.39203902 C4.65695424,6.98599024 4.40941186,7.59672195 4.24178475,8.22540488" id="Fill-1" fill="#FEFEFE" sketch:type="MSShapeGroup" mask="url(#mask-2)"></path>
                </g>
                <g id="Group-6">
                    <mask id="mask-4" sketch:name="Clip 5" fill="white">
                        <use xlink:href="#path-3"></use>
                    </mask>
                    <g id="Clip-5"></g>
                    <path d="M17.8902576,10.4258732 C17.7924102,10.7751415 17.7226305,11.1208976 17.6809186,11.4631415 C17.6388169,11.8057756 17.6528508,12.1230439 17.7226305,12.4165073 C17.7924102,12.7099707 17.9389864,12.9648 18.1623593,13.1813854 C18.3857322,13.398361 18.7202068,13.555239 19.1669525,13.6528 C19.4460712,13.7230439 19.7220712,13.729678 19.9937831,13.6738732 C20.2662746,13.6180683 20.4997831,13.5341659 20.6950881,13.4221659 C20.9324949,13.3105561 21.1558678,13.1642146 21.3652068,12.982361 L22.8933424,7.28245854 C22.7393593,7.1985561 22.5861559,7.12206829 22.4325627,7.05182439 C22.2789695,6.98236098 22.1117322,6.9230439 21.930461,6.87387317 C21.7488,6.82509268 21.546478,6.80050732 21.3234949,6.80050732 C20.7789017,6.80050732 20.3150034,6.91953171 19.9310203,7.1568 C19.5470373,7.39445854 19.2195797,7.6910439 18.947478,8.04733659 C18.6753763,8.40362927 18.4555119,8.7950439 18.2878847,9.2208 C18.1206475,9.64694634 17.9877153,10.0485073 17.8902576,10.4258732 L17.8902576,10.4258732 Z M24.2331898,15.6855805 L20.6744271,15.6855805 L20.7789017,15.3082146 C20.5555288,15.4483122 20.3185119,15.5669463 20.0670712,15.6645073 C19.8440881,15.7484098 19.5860203,15.8248976 19.2928678,15.8951415 C18.9997153,15.9649951 18.6859017,16.0001171 18.3506475,16.0001171 C17.2758847,16.0001171 16.4319017,15.8284098 15.8179186,15.4865561 C15.2035458,15.1443122 14.7606983,14.7041171 14.4885966,14.1659707 C14.2164949,13.6289951 14.0835627,13.0385561 14.0909695,12.3954341 C14.0975966,11.7530927 14.1779017,11.1248 14.3314949,10.5093854 C14.554478,9.64343415 14.8616644,8.84382439 15.2526644,8.11016585 C15.6432746,7.37689756 16.1247153,6.74470244 16.6969864,6.21397073 C17.2692576,5.68284878 17.9389864,5.26372683 18.7065627,4.95621463 C19.4737492,4.64948293 20.3532068,4.49533659 21.3441559,4.49533659 C22.2653254,4.49533659 23.0746136,4.55153171 23.7724102,4.66314146 C24.4702068,4.77514146 25.0494949,4.90743415 25.5098847,5.06119024 C26.0540881,5.22899512 26.5214949,5.42489756 26.9124949,5.64811707 L24.2331898,15.6855805 Z" id="Fill-4" fill="#FEFEFE" sketch:type="MSShapeGroup" mask="url(#mask-4)"></path>
                </g>
                <path d="M29.591839,5.56421463 C30.0522288,5.35465366 30.5894153,5.17319024 31.2037881,5.01943415 C31.7339576,4.87972683 32.3689915,4.75406829 33.1085,4.64206829 C33.8480085,4.53045854 34.6923814,4.47465366 35.6416186,4.47465366 C35.8509576,4.47465366 36.0774492,4.4848 36.3218729,4.50587317 C36.5659068,4.52694634 36.7857712,4.54801951 36.9814661,4.56870244 C37.1763814,4.58977561 37.3369915,4.61436098 37.4625169,4.64206829 C37.5884322,4.67016585 37.6437881,4.68421463 37.6301441,4.68421463 L36.9814661,7.1568 C36.8976525,7.1150439 36.7717373,7.07289756 36.6045,7.03114146 C36.4368729,6.98899512 36.2517034,6.95465366 36.0497712,6.92616585 C35.8470593,6.89845854 35.6342119,6.87387317 35.4112288,6.8528 C35.1878559,6.83211707 34.9851441,6.82158049 34.8042627,6.82158049 C34.4970763,6.82158049 34.2109407,6.8528 33.9458559,6.91562927 C33.6807712,6.97884878 33.4538898,7.04519024 33.2656017,7.1150439 C33.0773136,7.18489756 32.9272288,7.25123902 32.8157373,7.31367805 C32.7034661,7.37689756 32.6481102,7.41553171 32.6481102,7.42919024 L30.4502458,15.6855805 L26.9121441,15.6855805 L29.591839,5.56421463 Z" id="Fill-7" fill="#FEFEFE" sketch:type="MSShapeGroup"></path>
                <path d="M44.7679797,8.95882927 C44.8237254,8.65170732 44.8443864,8.36526829 44.8307424,8.09990244 C44.8167085,7.83453659 44.7539458,7.60390244 44.6424542,7.408 C44.5305729,7.21287805 44.3598271,7.05912195 44.1294373,6.94712195 C43.8990475,6.8355122 43.6027763,6.77970732 43.2398441,6.77970732 C42.4999458,6.77970732 41.9035051,6.97521951 41.4501322,7.3662439 C40.9963695,7.75765854 40.6299288,8.28839024 40.3512,8.95882927 L44.7679797,8.95882927 Z M39.7648949,11.1383415 C39.6951153,11.4318049 39.6740644,11.7287805 39.7021322,12.028878 C39.7298102,12.3297561 39.8276576,12.6017561 39.9952847,12.8460488 C40.1629119,13.0907317 40.4065559,13.2932683 40.7277763,13.4540488 C41.0486068,13.6148293 41.4743017,13.6948293 42.004861,13.6948293 C42.3533695,13.6948293 42.740861,13.6565854 43.1665559,13.5797073 C43.5922508,13.5032195 44.0175559,13.4083902 44.4432508,13.2963902 C44.8689458,13.1851707 45.2841153,13.0630244 45.6891492,12.9299512 C46.0934034,12.7972683 46.4563356,12.6680976 46.7775559,12.542439 L45.521522,15.3502439 C45.5074881,15.3783415 45.3609119,15.427122 45.0821831,15.4969756 C44.8026746,15.5672195 44.4467593,15.6401951 44.0144373,15.7166829 C43.5817254,15.7939512 43.1002847,15.8602927 42.5701153,15.9160976 C42.0395559,15.9719024 41.5234203,16 41.0209288,16 C40.0716915,16 39.2588949,15.8669268 38.5821492,15.601561 C37.9054034,15.3365854 37.3682169,14.9557073 36.9705898,14.4597073 C36.5725729,13.9637073 36.328539,13.3564878 36.2377085,12.6364878 C36.146878,11.9172683 36.2201661,11.1036098 36.4575729,10.195122 C36.7086237,9.25970732 37.0855898,8.43512195 37.5880814,7.72253659 C38.0901831,7.00995122 38.6690814,6.41287805 39.3255559,5.93092683 C39.9812508,5.44897561 40.6997085,5.08565854 41.4813186,4.84136585 C42.2629288,4.59707317 43.0515559,4.47453659 43.8468102,4.47453659 C44.6139966,4.47453659 45.2841153,4.59317073 45.8563864,4.83082927 C46.4286576,5.0684878 46.8925559,5.39668293 47.2484712,5.81541463 C47.6039966,6.23492683 47.8554373,6.72039024 48.0020136,7.27219512 C48.1485898,7.824 48.1871831,8.41404878 48.1174034,9.04273171 C48.0753017,9.37795122 48.0156576,9.72058537 47.9392508,10.0694634 C47.8620644,10.419122 47.7474542,10.7750244 47.593861,11.1383415 L39.7648949,11.1383415 Z" id="Fill-9" fill="#FEFEFE" sketch:type="MSShapeGroup"></path>
                <path d="M55.4224763,15.6855805 L50.9429339,15.6855805 L50.2314932,0.723629268 L54.2923576,0.723629268 L54.2502559,11.8506537 L54.2923576,11.8506537 L60.1951712,0.723629268 L64.2564254,0.723629268 L55.4224763,15.6855805 Z" id="Fill-11" fill="#FEFEFE" sketch:type="MSShapeGroup"></path>
                <path d="M67.7101288,3.44760976 L64.1513661,3.44760976 L64.8842475,0.723707317 L68.4426203,0.723707317 L67.7101288,3.44760976 Z M63.7954508,4.80995122 L67.3542136,4.80995122 L64.4445186,15.6856585 L60.9068068,15.6856585 L63.7954508,4.80995122 Z" id="Fill-13" fill="#FEFEFE" sketch:type="MSShapeGroup"></path>
                <path d="M71.0594746,0.723512195 L74.6178475,0.723512195 L70.6197458,15.6854634 L67.0820339,15.6854634 L71.0594746,0.723512195 Z" id="Fill-15" fill="#FEFEFE" sketch:type="MSShapeGroup"></path>
                <path d="M77.2347017,0.723512195 L80.7930746,0.723512195 L76.7949729,15.6854634 L73.257261,15.6854634 L77.2347017,0.723512195 Z" id="Fill-17" fill="#FEFEFE" sketch:type="MSShapeGroup"></path>
                <g id="Group-21">
                    <mask id="mask-6" sketch:name="Clip 20" fill="white">
                        <use xlink:href="#path-5"></use>
                    </mask>
                    <g id="Clip-20"></g>
                    <path d="M88.4335576,8.95882927 C88.4896932,8.65170732 88.5103542,8.36526829 88.4963203,8.09990244 C88.4822864,7.83453659 88.4199136,7.60390244 88.308422,7.408 C88.1965407,7.21287805 88.0254051,7.05912195 87.7950153,6.94712195 C87.5650153,6.8355122 87.2683542,6.77970732 86.905422,6.77970732 C86.1659136,6.77970732 85.5690831,6.97521951 85.1157102,7.3662439 C84.6619475,7.75765854 84.2958966,8.28839024 84.016778,8.95882927 L88.4335576,8.95882927 Z M83.4308627,11.1383415 C83.3606932,11.4318049 83.3400322,11.7287805 83.3681,12.028878 C83.395778,12.3297561 83.4936254,12.6017561 83.6608627,12.8460488 C83.8284898,13.0907317 84.0721339,13.2932683 84.3937441,13.4540488 C84.7145746,13.6148293 85.1402695,13.6948293 85.670439,13.6948293 C86.0193373,13.6948293 86.406439,13.6565854 86.8325237,13.5797073 C87.2578288,13.5032195 87.6835237,13.4083902 88.1092186,13.2963902 C88.5349136,13.1851707 88.9496932,13.0630244 89.3547271,12.9299512 C89.7593712,12.7972683 90.1223034,12.6680976 90.4431339,12.542439 L89.1874898,15.3502439 C89.1730661,15.3783415 89.0264898,15.427122 88.747761,15.4969756 C88.4686424,15.5672195 88.1127271,15.6401951 87.6800153,15.7166829 C87.2473034,15.7939512 86.7662525,15.8602927 86.2356932,15.9160976 C85.7051339,15.9719024 85.1893881,16 84.6868966,16 C83.7376593,16 82.9244729,15.8669268 82.2481169,15.601561 C81.5709814,15.3365854 81.0341847,14.9557073 80.6361678,14.4597073 C80.2385407,13.9637073 79.9941169,13.3564878 79.9032864,12.6364878 C79.8124559,11.9172683 79.8857441,11.1036098 80.1235407,10.195122 C80.3745915,9.25970732 80.7511678,8.43512195 81.2536593,7.72253659 C81.7561508,7.00995122 82.3346593,6.41287805 82.9911339,5.93092683 C83.6472186,5.44897561 84.3652864,5.08565854 85.1472864,4.84136585 C85.9285068,4.59707317 86.7175237,4.47453659 87.512778,4.47453659 C88.2799644,4.47453659 88.9496932,4.59317073 89.5223542,4.83082927 C90.0942356,5.0684878 90.5585237,5.39668293 90.9140492,5.81541463 C91.2699644,6.23492683 91.5214051,6.72039024 91.6679814,7.27219512 C91.8145576,7.824 91.852761,8.41404878 91.7829814,9.04273171 C91.7408797,9.37795122 91.6816254,9.72058537 91.6052186,10.0694634 C91.5280322,10.419122 91.413422,10.7750244 91.2598288,11.1383415 L83.4308627,11.1383415 Z" id="Fill-19" fill="#FEFEFE" sketch:type="MSShapeGroup" mask="url(#mask-6)"></path>
                </g>
            </g>
        </g>
    </g>
</svg>