<?xml version="1.0" encoding="utf-8"?>
<!-- Generator: Adobe Illustrator 19.1.0, SVG Export Plug-In . SVG Version: 6.00 Build 0)  -->
<!DOCTYPE svg PUBLIC "-//W3C//DTD SVG 1.1//EN" "http://www.w3.org/Graphics/SVG/1.1/DTD/svg11.dtd">
<svg version="1.1" id="Layer_1" xmlns:sketch="http://www.bohemiancoding.com/sketch/ns"
	 xmlns="http://www.w3.org/2000/svg" xmlns:xlink="http://www.w3.org/1999/xlink" x="0px" y="0px" viewBox="-391 290.3 58 15"
	 style="enable-background:new -391 290.3 58 15;" xml:space="preserve">
<style type="text/css">
	.st0{enable-background:new    ;}
	.st1{fill:#FFFFFF;}
</style>
<title>FILTER</title>
<desc>Created with Sketch.</desc>
<g id="Opportunities-Card---Social-Enterprise---Filter" sketch:type="MSPage">
	<g id="Opportunity-Card-More-Info---Social-Ent" transform="translate(-258.000000, -16.000000)" sketch:type="MSArtboardGroup">
		<g id="FILTER" transform="translate(258.000000, 16.000000)" sketch:type="MSLayerGroup">
			<g class="st0">
				<path class="st1" d="M-369,303.3h-0.9v-8.5h5.1v0.8h-4.3v2.9h4v0.8h-4V303.3z"/>
				<path class="st1" d="M-362.3,303.3h-0.9v-8.5h0.9V303.3z"/>
				<path class="st1" d="M-359.1,302.5h4v0.8h-4.8v-8.5h0.9V302.5z"/>
				<path class="st1" d="M-352.3,303.3h-0.9v-7.7h-2.8v-0.8h6.6v0.8h-2.8V303.3z"/>
				<path class="st1" d="M-347.3,302.5h4.5v0.8h-5.4v-8.5h5.3v0.8h-4.4v2.9h4.1v0.8h-4.1V302.5z"/>
				<path class="st1" d="M-340.2,303.3h-0.9v-8.5h2.5c0.4,0,0.8,0,1.2,0.1c0.4,0.1,0.7,0.2,0.9,0.4c0.3,0.2,0.5,0.4,0.6,0.7
					s0.2,0.6,0.2,1.1c0,0.3-0.1,0.6-0.2,0.9s-0.3,0.5-0.5,0.7c-0.2,0.2-0.4,0.3-0.7,0.5s-0.6,0.2-0.9,0.2l2.5,4h-1.1l-2.4-4h-1.4
					V303.3z M-340.2,298.6h1.5c0.7,0,1.2-0.1,1.6-0.4s0.6-0.6,0.6-1.1c0-0.3-0.1-0.5-0.2-0.7c-0.1-0.2-0.2-0.3-0.4-0.5
					s-0.4-0.2-0.7-0.3s-0.6-0.1-0.9-0.1h-1.5V298.6z"/>
			</g>
			<path id="Page-1" sketch:type="MSShapeGroup" class="st1" d="M-390.5,290.3c-0.5,0-0.5,0.5-0.5,0.5v1.8l5.5,7.2v5.5l3-1.2v-4.3
				l5.5-7.2v-1.8c0-0.5-0.5-0.5-0.5-0.5H-390.5z"/>
		</g>
	</g>
</g>
</svg>
